<?xml version="1.0" standalone="no"?>
<!DOCTYPE svg PUBLIC "-//W3C//DTD SVG 20010904//EN"
 "http://www.w3.org/TR/2001/REC-SVG-20010904/DTD/svg10.dtd">
<svg version="1.0" xmlns="http://www.w3.org/2000/svg"
 width="256.000000pt" height="256.000000pt" viewBox="0 0 256.000000 256.000000"
 preserveAspectRatio="xMidYMid meet">
<metadata>
Created by potrace 1.11, written by Peter Selinger 2001-2013
</metadata>
<g transform="translate(0.000000,256.000000) scale(0.100000,-0.100000)"
fill="#000000" stroke="none">
<path d="M1197 2396 c-41 -15 -51 -22 -141 -106 -33 -30 -67 -62 -76 -70 -9
-8 -70 -64 -135 -125 -66 -60 -125 -114 -131 -120 -6 -5 -62 -57 -124 -115
-62 -58 -118 -109 -124 -115 -20 -18 -259 -238 -320 -295 -147 -136 -165 -163
-131 -200 17 -18 32 -20 172 -20 l153 0 0 -439 c0 -242 4 -442 8 -445 4 -2 58
46 120 108 61 62 114 111 117 108 3 -3 5 -1 5 4 0 6 39 50 87 98 87 87 88 89
89 140 0 31 9 67 22 93 27 52 522 547 573 574 20 10 61 20 91 22 l53 4 206
206 207 207 -52 46 c-57 52 -224 206 -360 332 -49 46 -103 90 -120 99 -42 22
-142 27 -189 9z"/>
<path d="M1860 1545 c-171 -172 -211 -217 -202 -228 7 -8 10 -16 8 -18 -2 -2
-6 -23 -10 -47 -3 -23 -19 -62 -35 -85 -34 -48 -502 -515 -542 -541 -31 -20
-58 -26 -119 -29 -44 -2 -48 -5 -253 -211 -114 -114 -205 -212 -201 -217 3 -5
318 -9 772 -9 723 0 769 2 807 19 45 21 89 61 113 106 16 29 21 240 22 883 l0
62 146 0 c145 0 176 6 188 35 13 34 -24 79 -180 222 -17 15 -81 74 -142 131
-61 57 -122 112 -135 122 l-24 19 -213 -214z"/>
<path d="M1145 1117 c-127 -128 -234 -237 -238 -244 -5 -8 2 -11 22 -11 56 2
102 -44 103 -104 1 -28 18 -13 249 218 227 228 246 249 221 252 -68 7 -112 47
-112 102 0 11 -3 20 -7 19 -5 0 -112 -105 -238 -232z"/>
</g>
</svg>
