<?xml version="1.0" standalone="no"?>
<!DOCTYPE svg PUBLIC "-//W3C//DTD SVG 20010904//EN"
 "http://www.w3.org/TR/2001/REC-SVG-20010904/DTD/svg10.dtd">
<svg version="1.0" xmlns="http://www.w3.org/2000/svg"
 width="256.000000pt" height="256.000000pt" viewBox="0 0 256.000000 256.000000"
 preserveAspectRatio="xMidYMid meet">
<metadata>
Created by potrace 1.11, written by Peter Selinger 2001-2013
</metadata>
<g transform="translate(0.000000,256.000000) scale(0.100000,-0.100000)"
fill="#000000" stroke="none">
<path d="M1197 2396 c-41 -15 -51 -22 -141 -106 -33 -30 -67 -62 -76 -70 -70
-65 -265 -245 -310 -286 -30 -28 -68 -64 -85 -79 -70 -64 -209 -192 -234 -215
-15 -14 -80 -74 -146 -135 -210 -195 -226 -215 -190 -255 17 -18 32 -20 171
-20 l153 0 3 -457 c3 -414 5 -461 21 -490 25 -46 64 -83 111 -104 39 -18 83
-19 806 -19 721 0 767 1 805 19 45 21 89 61 113 106 16 29 22 241 22 878 l0
67 150 0 c138 0 152 2 171 21 34 34 15 67 -96 169 -32 30 -69 64 -81 75 -87
81 -250 233 -264 245 -9 8 -68 62 -130 120 -62 58 -121 112 -130 120 -17 15
-161 148 -334 308 -49 46 -103 90 -120 99 -42 22 -142 27 -189 9z m340 -448
c58 -38 109 -93 135 -147 21 -42 23 -61 26 -248 l3 -203 33 0 c21 0 40 -8 52
-21 18 -20 19 -44 22 -448 3 -421 2 -428 -18 -454 l-21 -27 -491 0 c-443 0
-493 2 -510 17 -17 15 -18 42 -18 455 0 425 1 439 20 458 11 11 33 20 49 20
l29 0 4 203 c4 180 6 207 26 247 30 64 80 115 148 151 l59 30 205 -3 c203 -3
205 -3 247 -30z"/>
<path d="M1124 1749 c-47 -24 -54 -56 -54 -233 l0 -166 206 0 205 0 -3 180
c-4 236 6 224 -191 227 -84 2 -151 -2 -163 -8z"/>
</g>
</svg>
